<svg xmlns="http://www.w3.org/2000/svg" xmlns:xlink="http://www.w3.org/1999/xlink" viewBox="0 0 79.94 27"><defs><style>.cls-1{fill:url(#linear-gradient);}.cls-2{fill:url(#linear-gradient-2);}.cls-3{fill:none;stroke:#666;stroke-miterlimit:10;}.cls-4{fill:url(#linear-gradient-3);}</style><linearGradient id="linear-gradient" x1="12.09" y1="11.81" x2="11.41" y2="35.64" gradientUnits="userSpaceOnUse"><stop offset="0" stop-color="#333" stop-opacity="0.8"/><stop offset="0.14" stop-color="#222" stop-opacity="0.87"/><stop offset="0.36" stop-color="#0f0f0f" stop-opacity="0.94"/><stop offset="0.63" stop-color="#040404" stop-opacity="0.99"/><stop offset="1"/></linearGradient><linearGradient id="linear-gradient-2" x1="3.74" y1="8.98" x2="27" y2="8.98" gradientUnits="userSpaceOnUse"><stop offset="0.18" stop-color="#ba9bc9"/><stop offset="1" stop-color="#29abe2" stop-opacity="0.7"/></linearGradient><linearGradient id="linear-gradient-3" x1="56.5" y1="18.3" x2="56.47" y2="1.41" gradientUnits="userSpaceOnUse"><stop offset="0.31"/><stop offset="1" stop-color="#999"/></linearGradient></defs><g id="Layer_2" data-name="Layer 2"><g id="Layer_1-2" data-name="Layer 1"><path class="cls-1" d="M23.85,22.16A13.5,13.5,0,0,1,.65,9.37a10.53,10.53,0,0,1,.46-1.22C2,8.54,2.94,9,3.85,9.38c-.13.29-.24.59-.35.91a10.5,10.5,0,0,0,18.06,9.94C22.34,20.87,23.11,21.52,23.85,22.16Z"/><path class="cls-2" d="M26.35,17.63a3.21,3.21,0,0,1-.12.33c-.83-.69-1.68-1.36-2.53-2a10.48,10.48,0,0,0-17-10.42c-1-.46-1.94-.91-2.94-1.33A13.49,13.49,0,0,1,26.35,17.63Z"/><path d="M9.11,18.82c0-1,.07-3.26.07-4.62V12.93c0-1.21,0-1.67-.07-2.55l-1.35-.2V9.31L12.1,7.85l.38.24.2,2.44V14.2c0,1.36,0,3.63.07,4.62Zm4.64-1v1H8v-1l2-.45h1.67Zm5.56-6.16V14.2c0,1.41,0,3.63.06,4.62H15.73c0-1,.07-3.21.07-4.62V11.89c0-1.41-.35-1.91-1.23-1.91a4.07,4.07,0,0,0-2.72,1.61h-.74V10.17h1.48l-.83.62c1.54-2.23,2.79-2.94,4.37-2.94C18,7.85,19.31,9.1,19.31,11.64Zm-1,5.71,2.16.45v1H14.63v-1l2-.45Z"/><path d="M40,6.23a4,4,0,0,1,3,1.22,4.65,4.65,0,0,1,1.19,3.37v6.8H40.83V11.31a2,2,0,0,0-.55-1.5,1.89,1.89,0,0,0-1.38-.52,2,2,0,0,0-1.51.58,2.35,2.35,0,0,0-.55,1.7v6.05H33.52V6.54h3.32v1A3.65,3.65,0,0,1,40,6.23Z"/><path d="M54.47,6.54h3.32V17.62H54.47v-1a4.16,4.16,0,0,1-3.3,1.35,4.89,4.89,0,0,1-3.74-1.7,5.9,5.9,0,0,1-1.56-4.15,5.9,5.9,0,0,1,1.56-4.15,4.89,4.89,0,0,1,3.74-1.7,4.13,4.13,0,0,1,3.3,1.36Zm-4.54,7.51a2.55,2.55,0,0,0,1.9.73,2.59,2.59,0,0,0,1.91-.73,2.69,2.69,0,0,0,.73-2,2.69,2.69,0,0,0-.73-2,2.59,2.59,0,0,0-1.91-.73,2.55,2.55,0,0,0-1.9.73,2.65,2.65,0,0,0-.73,2A2.65,2.65,0,0,0,49.93,14.05Z"/><path d="M63.54,8.52A2.72,2.72,0,0,1,64.8,6.89a3.88,3.88,0,0,1,2.07-.57v3.77a3.26,3.26,0,0,0-2.27.41,2.22,2.22,0,0,0-1.06,2.11v5H60.22V6.54h3.32Z"/><path d="M76.12,2.12h3.32v15.5H76.12v-1a4.13,4.13,0,0,1-3.3,1.35,4.89,4.89,0,0,1-3.74-1.7,5.93,5.93,0,0,1-1.55-4.15,5.93,5.93,0,0,1,1.55-4.15,4.89,4.89,0,0,1,3.74-1.7,4.11,4.11,0,0,1,3.3,1.36ZM71.58,14.05a2.85,2.85,0,0,0,3.81,0,2.65,2.65,0,0,0,.73-2,2.65,2.65,0,0,0-.73-2,2.85,2.85,0,0,0-3.81,0,2.69,2.69,0,0,0-.73,2A2.69,2.69,0,0,0,71.58,14.05Z"/><path class="cls-3" d="M40,6.23a4,4,0,0,1,3,1.22,4.65,4.65,0,0,1,1.19,3.37v6.8H40.83V11.31a2,2,0,0,0-.55-1.5,1.89,1.89,0,0,0-1.38-.52,2,2,0,0,0-1.51.58,2.35,2.35,0,0,0-.55,1.7v6.05H33.52V6.54h3.32v1A3.65,3.65,0,0,1,40,6.23Z"/><path class="cls-3" d="M54.47,6.54h3.32V17.62H54.47v-1a4.16,4.16,0,0,1-3.3,1.35,4.89,4.89,0,0,1-3.74-1.7,5.9,5.9,0,0,1-1.56-4.15,5.9,5.9,0,0,1,1.56-4.15,4.89,4.89,0,0,1,3.74-1.7,4.13,4.13,0,0,1,3.3,1.36Zm-4.54,7.51a2.55,2.55,0,0,0,1.9.73,2.59,2.59,0,0,0,1.91-.73,2.69,2.69,0,0,0,.73-2,2.69,2.69,0,0,0-.73-2,2.59,2.59,0,0,0-1.91-.73,2.55,2.55,0,0,0-1.9.73,2.65,2.65,0,0,0-.73,2A2.65,2.65,0,0,0,49.93,14.05Z"/><path class="cls-3" d="M63.54,8.52A2.72,2.72,0,0,1,64.8,6.89a3.88,3.88,0,0,1,2.07-.57v3.77a3.26,3.26,0,0,0-2.27.41,2.22,2.22,0,0,0-1.06,2.11v5H60.22V6.54h3.32Z"/><path class="cls-3" d="M76.12,2.12h3.32v15.5H76.12v-1a4.13,4.13,0,0,1-3.3,1.35,4.89,4.89,0,0,1-3.74-1.7,5.93,5.93,0,0,1-1.55-4.15,5.93,5.93,0,0,1,1.55-4.15,4.89,4.89,0,0,1,3.74-1.7,4.11,4.11,0,0,1,3.3,1.36ZM71.58,14.05a2.85,2.85,0,0,0,3.81,0,2.65,2.65,0,0,0,.73-2,2.65,2.65,0,0,0-.73-2,2.85,2.85,0,0,0-3.81,0,2.69,2.69,0,0,0-.73,2A2.69,2.69,0,0,0,71.58,14.05Z"/><path class="cls-4" d="M40,6.23a4,4,0,0,1,3,1.22,4.65,4.65,0,0,1,1.19,3.37v6.8H40.83V11.31a2,2,0,0,0-.55-1.5,1.89,1.89,0,0,0-1.38-.52,2,2,0,0,0-1.51.58,2.35,2.35,0,0,0-.55,1.7v6.05H33.52V6.54h3.32v1A3.65,3.65,0,0,1,40,6.23Z"/><path class="cls-4" d="M54.47,6.54h3.32V17.62H54.47v-1a4.16,4.16,0,0,1-3.3,1.35,4.89,4.89,0,0,1-3.74-1.7,5.9,5.9,0,0,1-1.56-4.15,5.9,5.9,0,0,1,1.56-4.15,4.89,4.89,0,0,1,3.74-1.7,4.13,4.13,0,0,1,3.3,1.36Zm-4.54,7.51a2.55,2.55,0,0,0,1.9.73,2.59,2.59,0,0,0,1.91-.73,2.69,2.69,0,0,0,.73-2,2.69,2.69,0,0,0-.73-2,2.59,2.59,0,0,0-1.91-.73,2.55,2.55,0,0,0-1.9.73,2.65,2.65,0,0,0-.73,2A2.65,2.65,0,0,0,49.93,14.05Z"/><path class="cls-4" d="M63.54,8.52A2.72,2.72,0,0,1,64.8,6.89a3.88,3.88,0,0,1,2.07-.57v3.77a3.26,3.26,0,0,0-2.27.41,2.22,2.22,0,0,0-1.06,2.11v5H60.22V6.54h3.32Z"/><path class="cls-4" d="M76.12,2.12h3.32v15.5H76.12v-1a4.13,4.13,0,0,1-3.3,1.35,4.89,4.89,0,0,1-3.74-1.7,5.93,5.93,0,0,1-1.55-4.15,5.93,5.93,0,0,1,1.55-4.15,4.89,4.89,0,0,1,3.74-1.7,4.11,4.11,0,0,1,3.3,1.36ZM71.58,14.05a2.85,2.85,0,0,0,3.81,0,2.65,2.65,0,0,0,.73-2,2.65,2.65,0,0,0-.73-2,2.85,2.85,0,0,0-3.81,0,2.69,2.69,0,0,0-.73,2A2.69,2.69,0,0,0,71.58,14.05Z"/></g></g></svg>